<mxfile host="65bd71144e" pages="2">
    <diagram id="GwGdqmz1NlTx6p3EFMZa" name="ユースケース図">
        <mxGraphModel dx="967" dy="1687" grid="1" gridSize="10" guides="1" tooltips="1" connect="1" arrows="1" fold="1" page="1" pageScale="1" pageWidth="827" pageHeight="1169" math="0" shadow="0">
            <root>
                <mxCell id="k3buWpee3ssEkUiaBQDZ-0"/>
                <mxCell id="k3buWpee3ssEkUiaBQDZ-1" parent="k3buWpee3ssEkUiaBQDZ-0"/>
                <mxCell id="MB_ULwCYrHJjINAd0KtO-7" value="" style="rounded=0;whiteSpace=wrap;html=1;" parent="k3buWpee3ssEkUiaBQDZ-1" vertex="1">
                    <mxGeometry x="220" y="10" width="490" height="420" as="geometry"/>
                </mxCell>
                <mxCell id="k3buWpee3ssEkUiaBQDZ-2" value="職員" style="shape=umlActor;verticalLabelPosition=bottom;verticalAlign=top;html=1;outlineConnect=0;" parent="k3buWpee3ssEkUiaBQDZ-1" vertex="1">
                    <mxGeometry x="10" y="430" width="30" height="60" as="geometry"/>
                </mxCell>
                <mxCell id="k3buWpee3ssEkUiaBQDZ-3" value="会員を登録する&lt;br&gt;UC101" style="ellipse;whiteSpace=wrap;html=1;" parent="k3buWpee3ssEkUiaBQDZ-1" vertex="1">
                    <mxGeometry x="340" y="50" width="120" height="80" as="geometry"/>
                </mxCell>
                <mxCell id="k3buWpee3ssEkUiaBQDZ-4" value="会員を更新する&lt;br&gt;UC102" style="ellipse;whiteSpace=wrap;html=1;" parent="k3buWpee3ssEkUiaBQDZ-1" vertex="1">
                    <mxGeometry x="340" y="180" width="120" height="80" as="geometry"/>
                </mxCell>
                <mxCell id="k3buWpee3ssEkUiaBQDZ-5" value="会員を削除する&lt;br&gt;UC103" style="ellipse;whiteSpace=wrap;html=1;" parent="k3buWpee3ssEkUiaBQDZ-1" vertex="1">
                    <mxGeometry x="340" y="310" width="120" height="80" as="geometry"/>
                </mxCell>
                <mxCell id="k3buWpee3ssEkUiaBQDZ-6" value="会員を検索する&lt;br&gt;UC104" style="ellipse;whiteSpace=wrap;html=1;" parent="k3buWpee3ssEkUiaBQDZ-1" vertex="1">
                    <mxGeometry x="560" y="180" width="120" height="80" as="geometry"/>
                </mxCell>
                <mxCell id="MB_ULwCYrHJjINAd0KtO-4" value="" style="endArrow=none;dashed=1;html=1;dashPattern=1 3;strokeWidth=2;entryX=0;entryY=0.5;entryDx=0;entryDy=0;" parent="k3buWpee3ssEkUiaBQDZ-1" target="k3buWpee3ssEkUiaBQDZ-6" edge="1">
                    <mxGeometry width="50" height="50" relative="1" as="geometry">
                        <mxPoint x="460" y="220" as="sourcePoint"/>
                        <mxPoint x="510" y="170" as="targetPoint"/>
                    </mxGeometry>
                </mxCell>
                <mxCell id="MB_ULwCYrHJjINAd0KtO-5" value="" style="endArrow=none;dashed=1;html=1;dashPattern=1 3;strokeWidth=2;entryX=0;entryY=0.5;entryDx=0;entryDy=0;" parent="k3buWpee3ssEkUiaBQDZ-1" target="k3buWpee3ssEkUiaBQDZ-6" edge="1">
                    <mxGeometry width="50" height="50" relative="1" as="geometry">
                        <mxPoint x="460" y="350" as="sourcePoint"/>
                        <mxPoint x="510" y="300" as="targetPoint"/>
                    </mxGeometry>
                </mxCell>
                <mxCell id="MB_ULwCYrHJjINAd0KtO-9" value="" style="rounded=0;whiteSpace=wrap;html=1;" parent="k3buWpee3ssEkUiaBQDZ-1" vertex="1">
                    <mxGeometry x="220" y="490" width="490" height="710" as="geometry"/>
                </mxCell>
                <mxCell id="MB_ULwCYrHJjINAd0KtO-10" value="資料の登録&lt;br&gt;UC201" style="ellipse;whiteSpace=wrap;html=1;" parent="k3buWpee3ssEkUiaBQDZ-1" vertex="1">
                    <mxGeometry x="340" y="530" width="120" height="80" as="geometry"/>
                </mxCell>
                <mxCell id="MB_ULwCYrHJjINAd0KtO-11" value="資料の貸出&lt;br&gt;UC202" style="ellipse;whiteSpace=wrap;html=1;" parent="k3buWpee3ssEkUiaBQDZ-1" vertex="1">
                    <mxGeometry x="340" y="660" width="120" height="80" as="geometry"/>
                </mxCell>
                <mxCell id="MB_ULwCYrHJjINAd0KtO-12" value="資料の削除&lt;br&gt;UC204" style="ellipse;whiteSpace=wrap;html=1;" parent="k3buWpee3ssEkUiaBQDZ-1" vertex="1">
                    <mxGeometry x="340" y="870" width="120" height="80" as="geometry"/>
                </mxCell>
                <mxCell id="MB_ULwCYrHJjINAd0KtO-13" value="資料の検索&lt;br&gt;UC206" style="ellipse;whiteSpace=wrap;html=1;" parent="k3buWpee3ssEkUiaBQDZ-1" vertex="1">
                    <mxGeometry x="560" y="670" width="120" height="80" as="geometry"/>
                </mxCell>
                <mxCell id="MB_ULwCYrHJjINAd0KtO-17" value="" style="endArrow=none;dashed=1;html=1;dashPattern=1 3;strokeWidth=2;entryX=0;entryY=0.5;entryDx=0;entryDy=0;" parent="k3buWpee3ssEkUiaBQDZ-1" target="MB_ULwCYrHJjINAd0KtO-13" edge="1">
                    <mxGeometry width="50" height="50" relative="1" as="geometry">
                        <mxPoint x="460.0000000000002" y="700.0000000000002" as="sourcePoint"/>
                        <mxPoint x="510" y="650" as="targetPoint"/>
                    </mxGeometry>
                </mxCell>
                <mxCell id="MB_ULwCYrHJjINAd0KtO-18" value="" style="endArrow=none;dashed=1;html=1;dashPattern=1 3;strokeWidth=2;entryX=0;entryY=0.5;entryDx=0;entryDy=0;exitX=1;exitY=0.5;exitDx=0;exitDy=0;" parent="k3buWpee3ssEkUiaBQDZ-1" source="MB_ULwCYrHJjINAd0KtO-12" target="MB_ULwCYrHJjINAd0KtO-13" edge="1">
                    <mxGeometry width="50" height="50" relative="1" as="geometry">
                        <mxPoint x="460.0000000000002" y="830.0000000000002" as="sourcePoint"/>
                        <mxPoint x="510" y="780" as="targetPoint"/>
                    </mxGeometry>
                </mxCell>
                <mxCell id="MB_ULwCYrHJjINAd0KtO-19" value="会員管理" style="text;html=1;strokeColor=none;fillColor=none;align=center;verticalAlign=middle;whiteSpace=wrap;rounded=0;" parent="k3buWpee3ssEkUiaBQDZ-1" vertex="1">
                    <mxGeometry x="220" y="-10" width="60" height="20" as="geometry"/>
                </mxCell>
                <mxCell id="MB_ULwCYrHJjINAd0KtO-21" value="資料管理" style="text;html=1;strokeColor=none;fillColor=none;align=center;verticalAlign=middle;whiteSpace=wrap;rounded=0;" parent="k3buWpee3ssEkUiaBQDZ-1" vertex="1">
                    <mxGeometry x="220" y="470" width="80" height="20" as="geometry"/>
                </mxCell>
                <mxCell id="MB_ULwCYrHJjINAd0KtO-23" value="" style="endArrow=none;dashed=1;html=1;dashPattern=1 3;strokeWidth=2;entryX=0;entryY=0.5;entryDx=0;entryDy=0;" parent="k3buWpee3ssEkUiaBQDZ-1" target="MB_ULwCYrHJjINAd0KtO-13" edge="1">
                    <mxGeometry width="50" height="50" relative="1" as="geometry">
                        <mxPoint x="460.0000000000002" y="569.5" as="sourcePoint"/>
                        <mxPoint x="670" y="569.5" as="targetPoint"/>
                    </mxGeometry>
                </mxCell>
                <mxCell id="MB_ULwCYrHJjINAd0KtO-24" value="資料の返却&lt;br&gt;UC203" style="ellipse;whiteSpace=wrap;html=1;" parent="k3buWpee3ssEkUiaBQDZ-1" vertex="1">
                    <mxGeometry x="340" y="760" width="120" height="80" as="geometry"/>
                </mxCell>
                <mxCell id="MB_ULwCYrHJjINAd0KtO-26" value="" style="endArrow=none;dashed=1;html=1;dashPattern=1 3;strokeWidth=2;exitX=1;exitY=0.5;exitDx=0;exitDy=0;entryX=0;entryY=0.5;entryDx=0;entryDy=0;" parent="k3buWpee3ssEkUiaBQDZ-1" source="MB_ULwCYrHJjINAd0KtO-24" target="MB_ULwCYrHJjINAd0KtO-13" edge="1">
                    <mxGeometry width="50" height="50" relative="1" as="geometry">
                        <mxPoint x="470.0000000000002" y="710" as="sourcePoint"/>
                        <mxPoint x="600" y="590" as="targetPoint"/>
                    </mxGeometry>
                </mxCell>
                <mxCell id="MB_ULwCYrHJjINAd0KtO-27" value="" style="endArrow=none;dashed=1;html=1;dashPattern=1 3;strokeWidth=2;entryX=0;entryY=0.5;entryDx=0;entryDy=0;" parent="k3buWpee3ssEkUiaBQDZ-1" target="k3buWpee3ssEkUiaBQDZ-6" edge="1">
                    <mxGeometry width="50" height="50" relative="1" as="geometry">
                        <mxPoint x="460" y="89.5" as="sourcePoint"/>
                        <mxPoint x="670" y="89.5" as="targetPoint"/>
                    </mxGeometry>
                </mxCell>
                <mxCell id="MB_ULwCYrHJjINAd0KtO-28" value="" style="endArrow=none;dashed=1;html=1;dashPattern=1 3;strokeWidth=2;" parent="k3buWpee3ssEkUiaBQDZ-1" target="MB_ULwCYrHJjINAd0KtO-29" edge="1">
                    <mxGeometry width="50" height="50" relative="1" as="geometry">
                        <mxPoint x="510" y="-80" as="sourcePoint"/>
                        <mxPoint x="570" y="-80" as="targetPoint"/>
                    </mxGeometry>
                </mxCell>
                <mxCell id="MB_ULwCYrHJjINAd0KtO-29" value="include" style="text;html=1;strokeColor=none;fillColor=none;align=center;verticalAlign=middle;whiteSpace=wrap;rounded=0;" parent="k3buWpee3ssEkUiaBQDZ-1" vertex="1">
                    <mxGeometry x="550" y="-90" width="40" height="20" as="geometry"/>
                </mxCell>
                <mxCell id="MB_ULwCYrHJjINAd0KtO-34" value="" style="endArrow=classic;html=1;exitX=0;exitY=0.5;exitDx=0;exitDy=0;entryX=1;entryY=0.3333333333333333;entryDx=0;entryDy=0;entryPerimeter=0;" parent="k3buWpee3ssEkUiaBQDZ-1" source="k3buWpee3ssEkUiaBQDZ-6" target="k3buWpee3ssEkUiaBQDZ-2" edge="1">
                    <mxGeometry width="50" height="50" relative="1" as="geometry">
                        <mxPoint x="560" y="260" as="sourcePoint"/>
                        <mxPoint x="90" y="180" as="targetPoint"/>
                    </mxGeometry>
                </mxCell>
                <mxCell id="MB_ULwCYrHJjINAd0KtO-35" value="" style="endArrow=classic;html=1;entryX=0;entryY=0.5;entryDx=0;entryDy=0;exitX=1;exitY=0.3333333333333333;exitDx=0;exitDy=0;exitPerimeter=0;" parent="k3buWpee3ssEkUiaBQDZ-1" source="k3buWpee3ssEkUiaBQDZ-2" target="k3buWpee3ssEkUiaBQDZ-3" edge="1">
                    <mxGeometry width="50" height="50" relative="1" as="geometry">
                        <mxPoint x="90" y="170" as="sourcePoint"/>
                        <mxPoint x="610" y="210" as="targetPoint"/>
                    </mxGeometry>
                </mxCell>
                <mxCell id="MB_ULwCYrHJjINAd0KtO-36" value="" style="endArrow=classic;html=1;exitX=1;exitY=0.3333333333333333;exitDx=0;exitDy=0;exitPerimeter=0;entryX=0;entryY=0.5;entryDx=0;entryDy=0;" parent="k3buWpee3ssEkUiaBQDZ-1" source="k3buWpee3ssEkUiaBQDZ-2" target="k3buWpee3ssEkUiaBQDZ-5" edge="1">
                    <mxGeometry width="50" height="50" relative="1" as="geometry">
                        <mxPoint x="90" y="220" as="sourcePoint"/>
                        <mxPoint x="230" y="330" as="targetPoint"/>
                    </mxGeometry>
                </mxCell>
                <mxCell id="MB_ULwCYrHJjINAd0KtO-37" value="" style="endArrow=classic;html=1;exitX=1;exitY=0.3333333333333333;exitDx=0;exitDy=0;exitPerimeter=0;" parent="k3buWpee3ssEkUiaBQDZ-1" source="k3buWpee3ssEkUiaBQDZ-2" target="k3buWpee3ssEkUiaBQDZ-4" edge="1">
                    <mxGeometry width="50" height="50" relative="1" as="geometry">
                        <mxPoint x="89.99999999999977" y="200" as="sourcePoint"/>
                        <mxPoint x="229.99999999999977" y="100" as="targetPoint"/>
                    </mxGeometry>
                </mxCell>
                <mxCell id="MB_ULwCYrHJjINAd0KtO-39" value="資料の更新&lt;br&gt;UC205" style="ellipse;whiteSpace=wrap;html=1;" parent="k3buWpee3ssEkUiaBQDZ-1" vertex="1">
                    <mxGeometry x="340" y="980" width="120" height="80" as="geometry"/>
                </mxCell>
                <mxCell id="MB_ULwCYrHJjINAd0KtO-40" value="" style="endArrow=classic;html=1;entryX=0;entryY=0.5;entryDx=0;entryDy=0;" parent="k3buWpee3ssEkUiaBQDZ-1" target="MB_ULwCYrHJjINAd0KtO-39" edge="1">
                    <mxGeometry width="50" height="50" relative="1" as="geometry">
                        <mxPoint x="40" y="450" as="sourcePoint"/>
                        <mxPoint x="219.99999999999977" y="810" as="targetPoint"/>
                    </mxGeometry>
                </mxCell>
                <mxCell id="MB_ULwCYrHJjINAd0KtO-41" value="" style="endArrow=classic;html=1;entryX=0;entryY=0.5;entryDx=0;entryDy=0;" parent="k3buWpee3ssEkUiaBQDZ-1" target="MB_ULwCYrHJjINAd0KtO-12" edge="1">
                    <mxGeometry width="50" height="50" relative="1" as="geometry">
                        <mxPoint x="40" y="450" as="sourcePoint"/>
                        <mxPoint x="239.99999999999977" y="1009.9999999999995" as="targetPoint"/>
                    </mxGeometry>
                </mxCell>
                <mxCell id="MB_ULwCYrHJjINAd0KtO-42" value="" style="endArrow=classic;html=1;entryX=0;entryY=0.5;entryDx=0;entryDy=0;exitX=1;exitY=0.3333333333333333;exitDx=0;exitDy=0;exitPerimeter=0;" parent="k3buWpee3ssEkUiaBQDZ-1" source="k3buWpee3ssEkUiaBQDZ-2" target="MB_ULwCYrHJjINAd0KtO-24" edge="1">
                    <mxGeometry width="50" height="50" relative="1" as="geometry">
                        <mxPoint x="80" y="670" as="sourcePoint"/>
                        <mxPoint x="239.99999999999977" y="899.9999999999995" as="targetPoint"/>
                    </mxGeometry>
                </mxCell>
                <mxCell id="MB_ULwCYrHJjINAd0KtO-43" value="" style="endArrow=classic;html=1;entryX=0;entryY=0.5;entryDx=0;entryDy=0;exitX=1;exitY=0.3333333333333333;exitDx=0;exitDy=0;exitPerimeter=0;" parent="k3buWpee3ssEkUiaBQDZ-1" source="k3buWpee3ssEkUiaBQDZ-2" target="MB_ULwCYrHJjINAd0KtO-11" edge="1">
                    <mxGeometry width="50" height="50" relative="1" as="geometry">
                        <mxPoint x="80" y="670" as="sourcePoint"/>
                        <mxPoint x="239.99999999999977" y="789.9999999999995" as="targetPoint"/>
                    </mxGeometry>
                </mxCell>
                <mxCell id="MB_ULwCYrHJjINAd0KtO-44" value="" style="endArrow=classic;html=1;entryX=0;entryY=0.5;entryDx=0;entryDy=0;exitX=1;exitY=0.3333333333333333;exitDx=0;exitDy=0;exitPerimeter=0;" parent="k3buWpee3ssEkUiaBQDZ-1" source="k3buWpee3ssEkUiaBQDZ-2" target="MB_ULwCYrHJjINAd0KtO-10" edge="1">
                    <mxGeometry width="50" height="50" relative="1" as="geometry">
                        <mxPoint x="80" y="670" as="sourcePoint"/>
                        <mxPoint x="239.99999999999977" y="690.0000000000005" as="targetPoint"/>
                    </mxGeometry>
                </mxCell>
                <mxCell id="MB_ULwCYrHJjINAd0KtO-45" value="" style="endArrow=classic;html=1;exitX=0;exitY=0.5;exitDx=0;exitDy=0;" parent="k3buWpee3ssEkUiaBQDZ-1" source="MB_ULwCYrHJjINAd0KtO-13" target="k3buWpee3ssEkUiaBQDZ-2" edge="1">
                    <mxGeometry width="50" height="50" relative="1" as="geometry">
                        <mxPoint x="89.99999999999977" y="680" as="sourcePoint"/>
                        <mxPoint x="80" y="670" as="targetPoint"/>
                        <Array as="points">
                            <mxPoint x="40" y="450"/>
                        </Array>
                    </mxGeometry>
                </mxCell>
                <mxCell id="i75OBFgn7uvReYDDVkB3-1" value="ログイン&lt;br&gt;UC001" style="ellipse;whiteSpace=wrap;html=1;" parent="k3buWpee3ssEkUiaBQDZ-1" vertex="1">
                    <mxGeometry x="30" y="210" width="120" height="80" as="geometry"/>
                </mxCell>
                <mxCell id="i75OBFgn7uvReYDDVkB3-2" value="" style="endArrow=classic;html=1;exitX=0.5;exitY=0;exitDx=0;exitDy=0;exitPerimeter=0;entryX=0.5;entryY=1;entryDx=0;entryDy=0;" parent="k3buWpee3ssEkUiaBQDZ-1" source="k3buWpee3ssEkUiaBQDZ-2" target="i75OBFgn7uvReYDDVkB3-1" edge="1">
                    <mxGeometry width="50" height="50" relative="1" as="geometry">
                        <mxPoint x="100" y="380" as="sourcePoint"/>
                        <mxPoint x="150" y="330" as="targetPoint"/>
                    </mxGeometry>
                </mxCell>
                <mxCell id="NFSC8H45xse_yPo9KvXZ-0" value="延滞者一覧&lt;br&gt;UC207" style="ellipse;whiteSpace=wrap;html=1;" parent="k3buWpee3ssEkUiaBQDZ-1" vertex="1">
                    <mxGeometry x="340" y="1089" width="120" height="80" as="geometry"/>
                </mxCell>
                <mxCell id="NFSC8H45xse_yPo9KvXZ-1" value="" style="endArrow=classic;html=1;entryX=0;entryY=0.5;entryDx=0;entryDy=0;exitX=1;exitY=0.3333333333333333;exitDx=0;exitDy=0;exitPerimeter=0;" parent="k3buWpee3ssEkUiaBQDZ-1" source="k3buWpee3ssEkUiaBQDZ-2" target="NFSC8H45xse_yPo9KvXZ-0" edge="1">
                    <mxGeometry width="50" height="50" relative="1" as="geometry">
                        <mxPoint x="50" y="460" as="sourcePoint"/>
                        <mxPoint x="350" y="1030" as="targetPoint"/>
                    </mxGeometry>
                </mxCell>
                <mxCell id="NFSC8H45xse_yPo9KvXZ-2" value="" style="endArrow=none;dashed=1;html=1;dashPattern=1 3;strokeWidth=2;entryX=0;entryY=0.5;entryDx=0;entryDy=0;exitX=1;exitY=0.5;exitDx=0;exitDy=0;" parent="k3buWpee3ssEkUiaBQDZ-1" source="MB_ULwCYrHJjINAd0KtO-39" target="MB_ULwCYrHJjINAd0KtO-13" edge="1">
                    <mxGeometry width="50" height="50" relative="1" as="geometry">
                        <mxPoint x="470" y="920" as="sourcePoint"/>
                        <mxPoint x="570" y="720" as="targetPoint"/>
                    </mxGeometry>
                </mxCell>
                <mxCell id="NFSC8H45xse_yPo9KvXZ-3" value="" style="endArrow=none;dashed=1;html=1;dashPattern=1 3;strokeWidth=2;entryX=0;entryY=0.5;entryDx=0;entryDy=0;exitX=1;exitY=0.5;exitDx=0;exitDy=0;" parent="k3buWpee3ssEkUiaBQDZ-1" source="NFSC8H45xse_yPo9KvXZ-0" target="MB_ULwCYrHJjINAd0KtO-13" edge="1">
                    <mxGeometry width="50" height="50" relative="1" as="geometry">
                        <mxPoint x="480" y="930" as="sourcePoint"/>
                        <mxPoint x="580" y="730" as="targetPoint"/>
                    </mxGeometry>
                </mxCell>
            </root>
        </mxGraphModel>
    </diagram>
    <diagram id="vDJl2hD0If1pY58gBM-X" name="ER図">
        <mxGraphModel dx="524" dy="534" grid="1" gridSize="10" guides="1" tooltips="1" connect="1" arrows="1" fold="1" page="1" pageScale="1" pageWidth="827" pageHeight="1169" math="0" shadow="0">
            <root>
                <mxCell id="bAn4tkHld9DJKOAoCNwT-0"/>
                <mxCell id="bAn4tkHld9DJKOAoCNwT-1" parent="bAn4tkHld9DJKOAoCNwT-0"/>
                <mxCell id="bAn4tkHld9DJKOAoCNwT-23" value="" style="group" parent="bAn4tkHld9DJKOAoCNwT-1" vertex="1" connectable="0">
                    <mxGeometry x="220" y="60" width="200" height="254" as="geometry"/>
                </mxCell>
                <mxCell id="bAn4tkHld9DJKOAoCNwT-24" value="ユーザID" style="swimlane;fontStyle=0;childLayout=stackLayout;horizontal=1;startSize=26;horizontalStack=0;resizeParent=1;resizeParentMax=0;resizeLast=0;collapsible=1;marginBottom=0;labelPosition=center;verticalLabelPosition=middle;align=left;verticalAlign=middle;" parent="bAn4tkHld9DJKOAoCNwT-23" vertex="1">
                    <mxGeometry y="20" width="120" height="286" as="geometry">
                        <mxRectangle y="20" width="70" height="26" as="alternateBounds"/>
                    </mxGeometry>
                </mxCell>
                <mxCell id="bAn4tkHld9DJKOAoCNwT-25" value="氏名" style="text;strokeColor=none;fillColor=none;align=left;verticalAlign=top;spacingLeft=4;spacingRight=4;overflow=hidden;rotatable=0;points=[[0,0.5],[1,0.5]];portConstraint=eastwest;" parent="bAn4tkHld9DJKOAoCNwT-24" vertex="1">
                    <mxGeometry y="26" width="120" height="26" as="geometry"/>
                </mxCell>
                <mxCell id="bAn4tkHld9DJKOAoCNwT-26" value="住所   " style="text;strokeColor=none;fillColor=none;align=left;verticalAlign=top;spacingLeft=4;spacingRight=4;overflow=hidden;rotatable=0;points=[[0,0.5],[1,0.5]];portConstraint=eastwest;" parent="bAn4tkHld9DJKOAoCNwT-24" vertex="1">
                    <mxGeometry y="52" width="120" height="26" as="geometry"/>
                </mxCell>
                <mxCell id="bAn4tkHld9DJKOAoCNwT-27" value="電話番号" style="text;strokeColor=none;fillColor=none;align=left;verticalAlign=top;spacingLeft=4;spacingRight=4;overflow=hidden;rotatable=0;points=[[0,0.5],[1,0.5]];portConstraint=eastwest;" parent="bAn4tkHld9DJKOAoCNwT-24" vertex="1">
                    <mxGeometry y="78" width="120" height="26" as="geometry"/>
                </mxCell>
                <mxCell id="bAn4tkHld9DJKOAoCNwT-28" value="メールアドレス" style="text;strokeColor=none;fillColor=none;align=left;verticalAlign=top;spacingLeft=4;spacingRight=4;overflow=hidden;rotatable=0;points=[[0,0.5],[1,0.5]];portConstraint=eastwest;" parent="bAn4tkHld9DJKOAoCNwT-24" vertex="1">
                    <mxGeometry y="104" width="120" height="26" as="geometry"/>
                </mxCell>
                <mxCell id="bAn4tkHld9DJKOAoCNwT-29" value="パスワード" style="text;strokeColor=none;fillColor=none;align=left;verticalAlign=top;spacingLeft=4;spacingRight=4;overflow=hidden;rotatable=0;points=[[0,0.5],[1,0.5]];portConstraint=eastwest;" parent="bAn4tkHld9DJKOAoCNwT-24" vertex="1">
                    <mxGeometry y="130" width="120" height="26" as="geometry"/>
                </mxCell>
                <mxCell id="bAn4tkHld9DJKOAoCNwT-30" value="生年月日" style="text;strokeColor=none;fillColor=none;align=left;verticalAlign=top;spacingLeft=4;spacingRight=4;overflow=hidden;rotatable=0;points=[[0,0.5],[1,0.5]];portConstraint=eastwest;" parent="bAn4tkHld9DJKOAoCNwT-24" vertex="1">
                    <mxGeometry y="156" width="120" height="26" as="geometry"/>
                </mxCell>
                <mxCell id="_x5WeHDiEqvoNP4XkFUQ-17" value="アクセス権限" style="text;strokeColor=none;fillColor=none;align=left;verticalAlign=top;spacingLeft=4;spacingRight=4;overflow=hidden;rotatable=0;points=[[0,0.5],[1,0.5]];portConstraint=eastwest;" parent="bAn4tkHld9DJKOAoCNwT-24" vertex="1">
                    <mxGeometry y="182" width="120" height="26" as="geometry"/>
                </mxCell>
                <mxCell id="bAn4tkHld9DJKOAoCNwT-33" value="登録日時（入会年月日）" style="text;strokeColor=none;fillColor=none;align=left;verticalAlign=top;spacingLeft=4;spacingRight=4;overflow=hidden;rotatable=0;points=[[0,0.5],[1,0.5]];portConstraint=eastwest;" parent="bAn4tkHld9DJKOAoCNwT-24" vertex="1">
                    <mxGeometry y="208" width="120" height="26" as="geometry"/>
                </mxCell>
                <mxCell id="_x5WeHDiEqvoNP4XkFUQ-0" value="更新日時" style="text;strokeColor=none;fillColor=none;align=left;verticalAlign=top;spacingLeft=4;spacingRight=4;overflow=hidden;rotatable=0;points=[[0,0.5],[1,0.5]];portConstraint=eastwest;" parent="bAn4tkHld9DJKOAoCNwT-24" vertex="1">
                    <mxGeometry y="234" width="120" height="26" as="geometry"/>
                </mxCell>
                <mxCell id="_x5WeHDiEqvoNP4XkFUQ-1" value="削除日時（退会年月日）" style="text;strokeColor=none;fillColor=none;align=left;verticalAlign=top;spacingLeft=4;spacingRight=4;overflow=hidden;rotatable=0;points=[[0,0.5],[1,0.5]];portConstraint=eastwest;" parent="bAn4tkHld9DJKOAoCNwT-24" vertex="1">
                    <mxGeometry y="260" width="120" height="26" as="geometry"/>
                </mxCell>
                <mxCell id="bAn4tkHld9DJKOAoCNwT-31" value="ユーザ台帳" style="text;html=1;strokeColor=none;fillColor=none;align=center;verticalAlign=middle;whiteSpace=wrap;rounded=0;" parent="bAn4tkHld9DJKOAoCNwT-23" vertex="1">
                    <mxGeometry width="80" height="20" as="geometry"/>
                </mxCell>
                <mxCell id="bAn4tkHld9DJKOAoCNwT-47" value="" style="group" parent="bAn4tkHld9DJKOAoCNwT-1" vertex="1" connectable="0">
                    <mxGeometry x="366" y="374" width="264" height="464" as="geometry"/>
                </mxCell>
                <mxCell id="bAn4tkHld9DJKOAoCNwT-48" value="資料ID" style="swimlane;fontStyle=0;childLayout=stackLayout;horizontal=1;startSize=26;horizontalStack=0;resizeParent=1;resizeParentMax=0;resizeLast=0;collapsible=1;marginBottom=0;labelPosition=center;verticalLabelPosition=middle;align=left;verticalAlign=middle;" parent="bAn4tkHld9DJKOAoCNwT-47" vertex="1">
                    <mxGeometry x="280" y="-294" width="120" height="156" as="geometry">
                        <mxRectangle y="20" width="70" height="26" as="alternateBounds"/>
                    </mxGeometry>
                </mxCell>
                <mxCell id="bAn4tkHld9DJKOAoCNwT-49" value="ISBN番号" style="text;strokeColor=none;fillColor=none;align=left;verticalAlign=top;spacingLeft=4;spacingRight=4;overflow=hidden;rotatable=0;points=[[0,0.5],[1,0.5]];portConstraint=eastwest;" parent="bAn4tkHld9DJKOAoCNwT-48" vertex="1">
                    <mxGeometry y="26" width="120" height="26" as="geometry"/>
                </mxCell>
                <mxCell id="bAn4tkHld9DJKOAoCNwT-53" value="備考" style="text;strokeColor=none;fillColor=none;align=left;verticalAlign=top;spacingLeft=4;spacingRight=4;overflow=hidden;rotatable=0;points=[[0,0.5],[1,0.5]];portConstraint=eastwest;" parent="bAn4tkHld9DJKOAoCNwT-48" vertex="1">
                    <mxGeometry y="52" width="120" height="26" as="geometry"/>
                </mxCell>
                <mxCell id="_x5WeHDiEqvoNP4XkFUQ-8" value="登録日時（入荷年月日）" style="text;strokeColor=none;fillColor=none;align=left;verticalAlign=top;spacingLeft=4;spacingRight=4;overflow=hidden;rotatable=0;points=[[0,0.5],[1,0.5]];portConstraint=eastwest;" parent="bAn4tkHld9DJKOAoCNwT-48" vertex="1">
                    <mxGeometry y="78" width="120" height="26" as="geometry"/>
                </mxCell>
                <mxCell id="_x5WeHDiEqvoNP4XkFUQ-9" value="更新日時" style="text;strokeColor=none;fillColor=none;align=left;verticalAlign=top;spacingLeft=4;spacingRight=4;overflow=hidden;rotatable=0;points=[[0,0.5],[1,0.5]];portConstraint=eastwest;" parent="bAn4tkHld9DJKOAoCNwT-48" vertex="1">
                    <mxGeometry y="104" width="120" height="26" as="geometry"/>
                </mxCell>
                <mxCell id="_x5WeHDiEqvoNP4XkFUQ-10" value="削除日時（廃棄年月日）" style="text;strokeColor=none;fillColor=none;align=left;verticalAlign=top;spacingLeft=4;spacingRight=4;overflow=hidden;rotatable=0;points=[[0,0.5],[1,0.5]];portConstraint=eastwest;" parent="bAn4tkHld9DJKOAoCNwT-48" vertex="1">
                    <mxGeometry y="130" width="120" height="26" as="geometry"/>
                </mxCell>
                <mxCell id="bAn4tkHld9DJKOAoCNwT-35" value="" style="group" parent="bAn4tkHld9DJKOAoCNwT-47" vertex="1" connectable="0">
                    <mxGeometry x="84" y="-44" width="200" height="254" as="geometry"/>
                </mxCell>
                <mxCell id="bAn4tkHld9DJKOAoCNwT-36" value="ISBN番号" style="swimlane;fontStyle=0;childLayout=stackLayout;horizontal=1;startSize=26;horizontalStack=0;resizeParent=1;resizeParentMax=0;resizeLast=0;collapsible=1;marginBottom=0;labelPosition=center;verticalLabelPosition=middle;align=left;verticalAlign=middle;" parent="bAn4tkHld9DJKOAoCNwT-35" vertex="1">
                    <mxGeometry y="20" width="120" height="234" as="geometry">
                        <mxRectangle y="20" width="70" height="26" as="alternateBounds"/>
                    </mxGeometry>
                </mxCell>
                <mxCell id="bAn4tkHld9DJKOAoCNwT-37" value="資料名" style="text;strokeColor=none;fillColor=none;align=left;verticalAlign=top;spacingLeft=4;spacingRight=4;overflow=hidden;rotatable=0;points=[[0,0.5],[1,0.5]];portConstraint=eastwest;" parent="bAn4tkHld9DJKOAoCNwT-36" vertex="1">
                    <mxGeometry y="26" width="120" height="26" as="geometry"/>
                </mxCell>
                <mxCell id="bAn4tkHld9DJKOAoCNwT-38" value="分類コード" style="text;strokeColor=none;fillColor=none;align=left;verticalAlign=top;spacingLeft=4;spacingRight=4;overflow=hidden;rotatable=0;points=[[0,0.5],[1,0.5]];portConstraint=eastwest;" parent="bAn4tkHld9DJKOAoCNwT-36" vertex="1">
                    <mxGeometry y="52" width="120" height="26" as="geometry"/>
                </mxCell>
                <mxCell id="bAn4tkHld9DJKOAoCNwT-39" value="著者" style="text;strokeColor=none;fillColor=none;align=left;verticalAlign=top;spacingLeft=4;spacingRight=4;overflow=hidden;rotatable=0;points=[[0,0.5],[1,0.5]];portConstraint=eastwest;" parent="bAn4tkHld9DJKOAoCNwT-36" vertex="1">
                    <mxGeometry y="78" width="120" height="26" as="geometry"/>
                </mxCell>
                <mxCell id="bAn4tkHld9DJKOAoCNwT-40" value="出版社" style="text;strokeColor=none;fillColor=none;align=left;verticalAlign=top;spacingLeft=4;spacingRight=4;overflow=hidden;rotatable=0;points=[[0,0.5],[1,0.5]];portConstraint=eastwest;" parent="bAn4tkHld9DJKOAoCNwT-36" vertex="1">
                    <mxGeometry y="104" width="120" height="26" as="geometry"/>
                </mxCell>
                <mxCell id="bAn4tkHld9DJKOAoCNwT-41" value="出版日" style="text;strokeColor=none;fillColor=none;align=left;verticalAlign=top;spacingLeft=4;spacingRight=4;overflow=hidden;rotatable=0;points=[[0,0.5],[1,0.5]];portConstraint=eastwest;" parent="bAn4tkHld9DJKOAoCNwT-36" vertex="1">
                    <mxGeometry y="130" width="120" height="26" as="geometry"/>
                </mxCell>
                <mxCell id="_x5WeHDiEqvoNP4XkFUQ-11" value="登録日時" style="text;strokeColor=none;fillColor=none;align=left;verticalAlign=top;spacingLeft=4;spacingRight=4;overflow=hidden;rotatable=0;points=[[0,0.5],[1,0.5]];portConstraint=eastwest;" parent="bAn4tkHld9DJKOAoCNwT-36" vertex="1">
                    <mxGeometry y="156" width="120" height="26" as="geometry"/>
                </mxCell>
                <mxCell id="_x5WeHDiEqvoNP4XkFUQ-12" value="更新日時" style="text;strokeColor=none;fillColor=none;align=left;verticalAlign=top;spacingLeft=4;spacingRight=4;overflow=hidden;rotatable=0;points=[[0,0.5],[1,0.5]];portConstraint=eastwest;" parent="bAn4tkHld9DJKOAoCNwT-36" vertex="1">
                    <mxGeometry y="182" width="120" height="26" as="geometry"/>
                </mxCell>
                <mxCell id="_x5WeHDiEqvoNP4XkFUQ-13" value="削除日時" style="text;strokeColor=none;fillColor=none;align=left;verticalAlign=top;spacingLeft=4;spacingRight=4;overflow=hidden;rotatable=0;points=[[0,0.5],[1,0.5]];portConstraint=eastwest;" parent="bAn4tkHld9DJKOAoCNwT-36" vertex="1">
                    <mxGeometry y="208" width="120" height="26" as="geometry"/>
                </mxCell>
                <mxCell id="bAn4tkHld9DJKOAoCNwT-45" value="資料目録" style="text;html=1;strokeColor=none;fillColor=none;align=center;verticalAlign=middle;whiteSpace=wrap;rounded=0;" parent="bAn4tkHld9DJKOAoCNwT-35" vertex="1">
                    <mxGeometry width="80" height="20" as="geometry"/>
                </mxCell>
                <mxCell id="bAn4tkHld9DJKOAoCNwT-82" value="" style="edgeStyle=entityRelationEdgeStyle;fontSize=12;html=1;endArrow=ERzeroToMany;startArrow=ERmandOne;exitX=1;exitY=0.5;exitDx=0;exitDy=0;entryX=0;entryY=0.5;entryDx=0;entryDy=0;" parent="bAn4tkHld9DJKOAoCNwT-47" source="bAn4tkHld9DJKOAoCNwT-38" edge="1">
                    <mxGeometry width="100" height="100" relative="1" as="geometry">
                        <mxPoint x="30" y="-24" as="sourcePoint"/>
                        <mxPoint x="280" y="-229" as="targetPoint"/>
                    </mxGeometry>
                </mxCell>
                <mxCell id="bAn4tkHld9DJKOAoCNwT-56" value="" style="group" parent="bAn4tkHld9DJKOAoCNwT-1" vertex="1" connectable="0">
                    <mxGeometry x="430" y="66" width="200" height="254" as="geometry"/>
                </mxCell>
                <mxCell id="bAn4tkHld9DJKOAoCNwT-57" value="ユーザID&#10;資料ID&#10;" style="swimlane;fontStyle=0;childLayout=stackLayout;horizontal=1;startSize=46;horizontalStack=0;resizeParent=1;resizeParentMax=0;resizeLast=0;collapsible=1;marginBottom=0;labelPosition=center;verticalLabelPosition=middle;align=left;verticalAlign=top;" parent="bAn4tkHld9DJKOAoCNwT-56" vertex="1">
                    <mxGeometry y="20" width="120" height="176" as="geometry">
                        <mxRectangle y="20" width="70" height="26" as="alternateBounds"/>
                    </mxGeometry>
                </mxCell>
                <mxCell id="bAn4tkHld9DJKOAoCNwT-59" value="返却期日" style="text;strokeColor=none;fillColor=none;align=left;verticalAlign=top;spacingLeft=4;spacingRight=4;overflow=hidden;rotatable=0;points=[[0,0.5],[1,0.5]];portConstraint=eastwest;" parent="bAn4tkHld9DJKOAoCNwT-57" vertex="1">
                    <mxGeometry y="46" width="120" height="26" as="geometry"/>
                </mxCell>
                <mxCell id="bAn4tkHld9DJKOAoCNwT-61" value="備考" style="text;strokeColor=none;fillColor=none;align=left;verticalAlign=top;spacingLeft=4;spacingRight=4;overflow=hidden;rotatable=0;points=[[0,0.5],[1,0.5]];portConstraint=eastwest;" parent="bAn4tkHld9DJKOAoCNwT-57" vertex="1">
                    <mxGeometry y="72" width="120" height="26" as="geometry"/>
                </mxCell>
                <mxCell id="_x5WeHDiEqvoNP4XkFUQ-5" value="登録日時（貸出年月日）" style="text;strokeColor=none;fillColor=none;align=left;verticalAlign=top;spacingLeft=4;spacingRight=4;overflow=hidden;rotatable=0;points=[[0,0.5],[1,0.5]];portConstraint=eastwest;" parent="bAn4tkHld9DJKOAoCNwT-57" vertex="1">
                    <mxGeometry y="98" width="120" height="26" as="geometry"/>
                </mxCell>
                <mxCell id="_x5WeHDiEqvoNP4XkFUQ-6" value="更新日時" style="text;strokeColor=none;fillColor=none;align=left;verticalAlign=top;spacingLeft=4;spacingRight=4;overflow=hidden;rotatable=0;points=[[0,0.5],[1,0.5]];portConstraint=eastwest;" parent="bAn4tkHld9DJKOAoCNwT-57" vertex="1">
                    <mxGeometry y="124" width="120" height="26" as="geometry"/>
                </mxCell>
                <mxCell id="_x5WeHDiEqvoNP4XkFUQ-7" value="削除日時（返却年月日）" style="text;strokeColor=none;fillColor=none;align=left;verticalAlign=top;spacingLeft=4;spacingRight=4;overflow=hidden;rotatable=0;points=[[0,0.5],[1,0.5]];portConstraint=eastwest;" parent="bAn4tkHld9DJKOAoCNwT-57" vertex="1">
                    <mxGeometry y="150" width="120" height="26" as="geometry"/>
                </mxCell>
                <mxCell id="bAn4tkHld9DJKOAoCNwT-64" value="貸出台帳" style="text;html=1;strokeColor=none;fillColor=none;align=center;verticalAlign=middle;whiteSpace=wrap;rounded=0;" parent="bAn4tkHld9DJKOAoCNwT-56" vertex="1">
                    <mxGeometry width="80" height="20" as="geometry"/>
                </mxCell>
                <mxCell id="bAn4tkHld9DJKOAoCNwT-65" value="" style="group" parent="bAn4tkHld9DJKOAoCNwT-1" vertex="1" connectable="0">
                    <mxGeometry x="250" y="440" width="200" height="254" as="geometry"/>
                </mxCell>
                <mxCell id="bAn4tkHld9DJKOAoCNwT-66" value="分類コード" style="swimlane;fontStyle=0;childLayout=stackLayout;horizontal=1;startSize=26;horizontalStack=0;resizeParent=1;resizeParentMax=0;resizeLast=0;collapsible=1;marginBottom=0;labelPosition=center;verticalLabelPosition=middle;align=left;verticalAlign=middle;" parent="bAn4tkHld9DJKOAoCNwT-65" vertex="1">
                    <mxGeometry y="20" width="120" height="130" as="geometry">
                        <mxRectangle y="20" width="70" height="26" as="alternateBounds"/>
                    </mxGeometry>
                </mxCell>
                <mxCell id="bAn4tkHld9DJKOAoCNwT-67" value="類目名" style="text;strokeColor=none;fillColor=none;align=left;verticalAlign=top;spacingLeft=4;spacingRight=4;overflow=hidden;rotatable=0;points=[[0,0.5],[1,0.5]];portConstraint=eastwest;" parent="bAn4tkHld9DJKOAoCNwT-66" vertex="1">
                    <mxGeometry y="26" width="120" height="26" as="geometry"/>
                </mxCell>
                <mxCell id="_x5WeHDiEqvoNP4XkFUQ-14" value="登録日時" style="text;strokeColor=none;fillColor=none;align=left;verticalAlign=top;spacingLeft=4;spacingRight=4;overflow=hidden;rotatable=0;points=[[0,0.5],[1,0.5]];portConstraint=eastwest;" parent="bAn4tkHld9DJKOAoCNwT-66" vertex="1">
                    <mxGeometry y="52" width="120" height="26" as="geometry"/>
                </mxCell>
                <mxCell id="_x5WeHDiEqvoNP4XkFUQ-15" value="更新日時" style="text;strokeColor=none;fillColor=none;align=left;verticalAlign=top;spacingLeft=4;spacingRight=4;overflow=hidden;rotatable=0;points=[[0,0.5],[1,0.5]];portConstraint=eastwest;" parent="bAn4tkHld9DJKOAoCNwT-66" vertex="1">
                    <mxGeometry y="78" width="120" height="26" as="geometry"/>
                </mxCell>
                <mxCell id="_x5WeHDiEqvoNP4XkFUQ-16" value="削除日時" style="text;strokeColor=none;fillColor=none;align=left;verticalAlign=top;spacingLeft=4;spacingRight=4;overflow=hidden;rotatable=0;points=[[0,0.5],[1,0.5]];portConstraint=eastwest;" parent="bAn4tkHld9DJKOAoCNwT-66" vertex="1">
                    <mxGeometry y="104" width="120" height="26" as="geometry"/>
                </mxCell>
                <mxCell id="bAn4tkHld9DJKOAoCNwT-73" value="分類コード" style="text;html=1;strokeColor=none;fillColor=none;align=center;verticalAlign=middle;whiteSpace=wrap;rounded=0;" parent="bAn4tkHld9DJKOAoCNwT-65" vertex="1">
                    <mxGeometry width="80" height="20" as="geometry"/>
                </mxCell>
                <mxCell id="bAn4tkHld9DJKOAoCNwT-55" value="資料台帳" style="text;html=1;strokeColor=none;fillColor=none;align=center;verticalAlign=middle;whiteSpace=wrap;rounded=0;" parent="bAn4tkHld9DJKOAoCNwT-1" vertex="1">
                    <mxGeometry x="630" y="60" width="80" height="20" as="geometry"/>
                </mxCell>
                <mxCell id="bAn4tkHld9DJKOAoCNwT-83" value="" style="edgeStyle=entityRelationEdgeStyle;fontSize=12;html=1;endArrow=ERzeroToMany;startArrow=ERmandOne;exitX=1;exitY=0.5;exitDx=0;exitDy=0;entryX=0;entryY=0.5;entryDx=0;entryDy=0;" parent="bAn4tkHld9DJKOAoCNwT-1" source="bAn4tkHld9DJKOAoCNwT-67" target="bAn4tkHld9DJKOAoCNwT-38" edge="1">
                    <mxGeometry width="100" height="100" relative="1" as="geometry">
                        <mxPoint x="564" y="425" as="sourcePoint"/>
                        <mxPoint x="640" y="181" as="targetPoint"/>
                    </mxGeometry>
                </mxCell>
                <mxCell id="bAn4tkHld9DJKOAoCNwT-84" value="" style="edgeStyle=entityRelationEdgeStyle;fontSize=12;html=1;endArrow=ERzeroToOne;startArrow=ERmandOne;exitX=0;exitY=0.5;exitDx=0;exitDy=0;entryX=1;entryY=0.5;entryDx=0;entryDy=0;" parent="bAn4tkHld9DJKOAoCNwT-1" edge="1">
                    <mxGeometry width="100" height="100" relative="1" as="geometry">
                        <mxPoint x="646" y="145" as="sourcePoint"/>
                        <mxPoint x="550" y="145" as="targetPoint"/>
                    </mxGeometry>
                </mxCell>
                <mxCell id="bAn4tkHld9DJKOAoCNwT-86" value="" style="edgeStyle=entityRelationEdgeStyle;fontSize=12;html=1;endArrow=ERzeroToMany;startArrow=ERmandOne;entryX=0;entryY=0.5;entryDx=0;entryDy=0;exitX=1;exitY=0.5;exitDx=0;exitDy=0;" parent="bAn4tkHld9DJKOAoCNwT-1" source="bAn4tkHld9DJKOAoCNwT-26" edge="1">
                    <mxGeometry width="100" height="100" relative="1" as="geometry">
                        <mxPoint x="390" y="310" as="sourcePoint"/>
                        <mxPoint x="430" y="145" as="targetPoint"/>
                    </mxGeometry>
                </mxCell>
                <mxCell id="bAn4tkHld9DJKOAoCNwT-87" value="~5" style="text;html=1;align=center;verticalAlign=middle;resizable=0;points=[];autosize=1;strokeColor=none;" parent="bAn4tkHld9DJKOAoCNwT-1" vertex="1">
                    <mxGeometry x="405" y="150" width="30" height="20" as="geometry"/>
                </mxCell>
                <mxCell id="bAn4tkHld9DJKOAoCNwT-88" value="【チームささき】ER図" style="text;html=1;align=center;verticalAlign=middle;resizable=0;points=[];autosize=1;strokeColor=none;" parent="bAn4tkHld9DJKOAoCNwT-1" vertex="1">
                    <mxGeometry x="20" y="10" width="140" height="20" as="geometry"/>
                </mxCell>
            </root>
        </mxGraphModel>
    </diagram>
</mxfile>